#tb 0: 71/1000
0,          0,          0,        1,   192000, 0xbabcbd55
0,          1,          1,        1,   192000, 0xf00a5683
0,          2,          2,        1,   192000, 0xcce90589
0,          3,          3,        1,   192000, 0x8545631f
0,          4,          4,        1,   192000, 0xd3ab654c
0,          5,          5,        1,   192000, 0x5e0dda12
0,          6,          6,        1,   192000, 0x7e94b053
0,          7,          7,        1,   192000, 0x8027e68b
